M48
INCH,TZ
T1C0.020
T2C0.039
%
G90
G05
T1
X87736Y-39173
X87756Y-34803
X89429Y-35827
X89429Y-39173
X89764Y-41969
X91339Y-37008
X91673Y-42323
X93366Y-37992
X93366Y-42323
X94291Y-39409
X94291Y-43465
X94685Y-41220
X94685Y-43858
X95945Y-38346
X95945Y-43189
X96535Y-40591
X96614Y-43740
X97402Y-40945
X97638Y-46850
X97874Y-41378
X97953Y-40039
X98858Y-43425
X99449Y-43425
X100394Y-40079
X100394Y-40709
X100394Y-41339
X100394Y-41929
X100669Y-43346
X101516Y-42323
X102284Y-39902
X103150Y-37756
X103190Y-42520
X103465Y-45276
X103858Y-44449
X103937Y-37795
X104252Y-42283
X104528Y-44291
X104606Y-46457
X108484Y-34016
X111024Y-35039
T2
X88740Y-41480
X88740Y-42480
X90945Y-46063
X91339Y-32677
X91339Y-35827
X91945Y-46063
X92339Y-32677
X92339Y-35827
X92945Y-46063
X93339Y-32677
X93339Y-35827
X95457Y-46063
X96063Y-32677
X96063Y-35827
X96457Y-46063
X97063Y-32677
X97063Y-35827
X98063Y-32677
X98063Y-35827
X98606Y-46063
X99606Y-46063
X100606Y-46063
X100787Y-32677
X100787Y-35827
X101606Y-46063
X101787Y-32677
X101787Y-35827
X102606Y-46063
X102787Y-32677
X102787Y-35827
X105693Y-32677
X106693Y-32677
X107693Y-32677
X108693Y-32677
X109693Y-32677
T0
M30
