G04 #@! TF.FileFunction,Soldermask,Top*
%FSLAX46Y46*%
G04 Gerber Fmt 4.6, Leading zero omitted, Abs format (unit mm)*
G04 Created by KiCad (PCBNEW 4.0.7) date 04/04/19 13:25:53*
%MOMM*%
%LPD*%
G01*
G04 APERTURE LIST*
%ADD10C,0.100000*%
%ADD11C,0.150000*%
%ADD12R,1.200000X1.150000*%
%ADD13R,1.150000X1.200000*%
%ADD14R,1.600000X1.600000*%
%ADD15R,1.875000X1.000000*%
%ADD16R,1.000000X1.875000*%
%ADD17R,2.100000X2.100000*%
%ADD18O,2.100000X2.100000*%
%ADD19R,0.900000X1.300000*%
%ADD20R,2.900000X2.400000*%
%ADD21R,2.051000X3.448000*%
%ADD22R,7.100520X7.100520*%
%ADD23R,1.300000X0.900000*%
G04 APERTURE END LIST*
D10*
D11*
X-3500000Y-5000000D02*
G75*
G03X-3500000Y-5000000I-1500000J0D01*
G01*
X-3500000Y-35000000D02*
G75*
G03X-3500000Y-35000000I-1500000J0D01*
G01*
X-63500000Y-35000000D02*
G75*
G03X-63500000Y-35000000I-1500000J0D01*
G01*
X-63500000Y-5000000D02*
G75*
G03X-63500000Y-5000000I-1500000J0D01*
G01*
X-70000000Y-40000000D02*
X-70000000Y0D01*
X0Y-40000000D02*
X-70000000Y-40000000D01*
X0Y0D02*
X0Y-40000000D01*
X-70000000Y0D02*
X0Y0D01*
D12*
X-17750000Y-26000000D03*
X-16250000Y-26000000D03*
X-17750000Y-39000000D03*
X-16250000Y-39000000D03*
X-17750000Y-32000000D03*
X-16250000Y-32000000D03*
D13*
X-49000000Y-17500000D03*
X-49000000Y-19000000D03*
X-35700000Y-28450000D03*
X-35700000Y-29950000D03*
D14*
X-18100000Y-18100000D03*
X-15900000Y-18100000D03*
X-18100000Y-16100000D03*
X-15900000Y-16100000D03*
X-18100000Y-14100000D03*
X-15900000Y-14100000D03*
X-18100000Y-12100000D03*
X-15900000Y-12100000D03*
X-18100000Y-10100000D03*
X-15900000Y-10100000D03*
D15*
X-46738000Y-20600000D03*
X-46738000Y-21400000D03*
X-46738000Y-22200000D03*
X-46738000Y-23000000D03*
X-46738000Y-23800000D03*
X-46738000Y-24600000D03*
X-46738000Y-25400000D03*
X-46738000Y-26200000D03*
D16*
X-45300000Y-27638000D03*
X-44500000Y-27638000D03*
X-43700000Y-27638000D03*
X-42900000Y-27638000D03*
X-42100000Y-27638000D03*
X-41300000Y-27638000D03*
X-40500000Y-27638000D03*
X-39700000Y-27638000D03*
D15*
X-38262000Y-26200000D03*
X-38262000Y-25400000D03*
X-38262000Y-24600000D03*
X-38262000Y-23800000D03*
X-38262000Y-23000000D03*
X-38262000Y-22200000D03*
X-38262000Y-21400000D03*
X-38262000Y-20600000D03*
D16*
X-39700000Y-19162000D03*
X-40500000Y-19162000D03*
X-41300000Y-19162000D03*
X-42100000Y-19162000D03*
X-42900000Y-19162000D03*
X-43700000Y-19162000D03*
X-44500000Y-19162000D03*
X-45300000Y-19162000D03*
D17*
X-34000000Y-11000000D03*
D18*
X-31460000Y-11000000D03*
X-28920000Y-11000000D03*
D17*
X-46000000Y-11000000D03*
D18*
X-43460000Y-11000000D03*
X-40920000Y-11000000D03*
D17*
X-34000000Y-3000000D03*
D18*
X-31460000Y-3000000D03*
X-28920000Y-3000000D03*
D17*
X-58000000Y-11000000D03*
D18*
X-55460000Y-11000000D03*
X-52920000Y-11000000D03*
D17*
X-58000000Y-3000000D03*
D18*
X-55460000Y-3000000D03*
X-52920000Y-3000000D03*
D17*
X-46000000Y-3000000D03*
D18*
X-43460000Y-3000000D03*
X-40920000Y-3000000D03*
D17*
X-21540000Y-3000000D03*
D18*
X-19000000Y-3000000D03*
X-16460000Y-3000000D03*
X-13920000Y-3000000D03*
X-11380000Y-3000000D03*
D17*
X-29380000Y-37000000D03*
D18*
X-31920000Y-37000000D03*
X-34460000Y-37000000D03*
X-37000000Y-37000000D03*
X-39540000Y-37000000D03*
D17*
X-64600000Y-25360000D03*
D18*
X-64600000Y-27900000D03*
D19*
X-23250000Y-26000000D03*
X-21750000Y-26000000D03*
X-23250000Y-39000000D03*
X-21750000Y-39000000D03*
X-23250000Y-32000000D03*
X-21750000Y-32000000D03*
X-11250000Y-26000000D03*
X-12750000Y-26000000D03*
X-11250000Y-39000000D03*
X-12750000Y-39000000D03*
X-11250000Y-32000000D03*
X-12750000Y-32000000D03*
X-10250000Y-18100000D03*
X-11750000Y-18100000D03*
X-10250000Y-16100000D03*
X-11750000Y-16100000D03*
X-10250000Y-14100000D03*
X-11750000Y-14100000D03*
X-10250000Y-12100000D03*
X-11750000Y-12100000D03*
X-10250000Y-10100000D03*
X-11750000Y-10100000D03*
D20*
X-12720000Y-23000000D03*
X-21280000Y-23000000D03*
X-12720000Y-36000000D03*
X-21280000Y-36000000D03*
X-12720000Y-29000000D03*
X-21280000Y-29000000D03*
D17*
X-53920000Y-37000000D03*
D18*
X-56460000Y-37000000D03*
X-59000000Y-37000000D03*
D21*
X-67301240Y-20000000D03*
D22*
X-65000000Y-13350280D03*
D21*
X-62698760Y-20000000D03*
X-57301240Y-28000000D03*
D22*
X-55000000Y-21350280D03*
D21*
X-52698760Y-28000000D03*
X-32500000Y-28000000D03*
D22*
X-30198760Y-21350280D03*
D21*
X-27897520Y-28000000D03*
D17*
X-47540000Y-37000000D03*
D18*
X-45000000Y-37000000D03*
D14*
X-26400000Y-5600000D03*
X-24200000Y-5600000D03*
X-26400000Y-7500000D03*
X-24200000Y-7500000D03*
X-59900000Y-23400000D03*
X-59900000Y-21200000D03*
D23*
X-24200000Y-11150000D03*
X-24200000Y-9650000D03*
X-25900000Y-11200000D03*
X-25900000Y-9700000D03*
X-59900000Y-18150000D03*
X-59900000Y-19650000D03*
M02*
